<svg xmlns="http://www.w3.org/2000/svg" xmlns:xlink="http://www.w3.org/1999/xlink" width="500" zoomAndPan="magnify" viewBox="0 0 375 374.999991" height="500" preserveAspectRatio="xMidYMid meet" version="1.0"><defs><g/><clipPath id="cd3d487e54"><path d="M 134.351562 69.253906 L 151.195312 69.253906 L 151.195312 139.539062 L 134.351562 139.539062 Z M 134.351562 69.253906 " clip-rule="nonzero"/></clipPath><clipPath id="9ddcdd06a7"><path d="M 110.085938 83.503906 L 126.933594 83.503906 L 126.933594 125.289062 L 110.085938 125.289062 Z M 110.085938 83.503906 " clip-rule="nonzero"/></clipPath><clipPath id="3615fd4a40"><path d="M 242.113281 83.503906 L 258.957031 83.503906 L 258.957031 125.289062 L 242.113281 125.289062 Z M 242.113281 83.503906 " clip-rule="nonzero"/></clipPath><clipPath id="31d2537efe"><path d="M 217.761719 69.253906 L 234.605469 69.253906 L 234.605469 139.539062 L 217.761719 139.539062 Z M 217.761719 69.253906 " clip-rule="nonzero"/></clipPath><clipPath id="cd39e63930"><path d="M 161.796875 95.972656 L 231.347656 95.972656 L 231.347656 112.816406 L 161.796875 112.816406 Z M 161.796875 95.972656 " clip-rule="nonzero"/></clipPath><clipPath id="f711d6c99e"><path d="M 225.714844 95.972656 L 161.796875 95.972656 L 167.414062 112.816406 L 231.332031 112.816406 Z M 225.714844 95.972656 " clip-rule="nonzero"/></clipPath><clipPath id="d145e21696"><path d="M 26.210938 237.371094 L 111.078125 237.371094 L 111.078125 242.332031 L 26.210938 242.332031 Z M 26.210938 237.371094 " clip-rule="nonzero"/></clipPath><clipPath id="fa7533e99d"><path d="M 259.949219 238.242188 L 349.445312 238.242188 L 349.445312 243.207031 L 259.949219 243.207031 Z M 259.949219 238.242188 " clip-rule="nonzero"/></clipPath></defs><rect x="-37.5" width="450" fill="#ffffff" y="-37.499999" height="449.999989" fill-opacity="1"/><rect x="-37.5" width="450" fill="#000000" y="-37.499999" height="449.999989" fill-opacity="1"/><g clip-path="url(#cd3d487e54)"><path fill="#ffde59" d="M 134.351562 69.253906 L 151.195312 69.253906 L 151.195312 139.523438 L 134.351562 139.523438 Z M 134.351562 69.253906 " fill-opacity="1" fill-rule="nonzero"/></g><g clip-path="url(#9ddcdd06a7)"><path fill="#ffde59" d="M 110.085938 83.503906 L 126.933594 83.503906 L 126.933594 125.285156 L 110.085938 125.285156 Z M 110.085938 83.503906 " fill-opacity="1" fill-rule="nonzero"/></g><g clip-path="url(#3615fd4a40)"><path fill="#ffde59" d="M 242.113281 83.503906 L 258.957031 83.503906 L 258.957031 125.285156 L 242.113281 125.285156 Z M 242.113281 83.503906 " fill-opacity="1" fill-rule="nonzero"/></g><g clip-path="url(#31d2537efe)"><path fill="#ffde59" d="M 217.761719 69.253906 L 234.605469 69.253906 L 234.605469 139.523438 L 217.761719 139.523438 Z M 217.761719 69.253906 " fill-opacity="1" fill-rule="nonzero"/></g><g clip-path="url(#cd39e63930)"><g clip-path="url(#f711d6c99e)"><path fill="#ffde59" d="M 161.796875 95.972656 L 231.347656 95.972656 L 231.347656 112.816406 L 161.796875 112.816406 Z M 161.796875 95.972656 " fill-opacity="1" fill-rule="nonzero"/></g></g><g clip-path="url(#d145e21696)"><path fill="#c6091f" d="M 26.210938 237.371094 L 111.082031 237.371094 L 111.082031 242.332031 L 26.210938 242.332031 Z M 26.210938 237.371094 " fill-opacity="1" fill-rule="nonzero"/></g><g clip-path="url(#fa7533e99d)"><path fill="#c6091f" d="M 259.949219 238.242188 L 349.4375 238.242188 L 349.4375 243.207031 L 259.949219 243.207031 Z M 259.949219 238.242188 " fill-opacity="1" fill-rule="nonzero"/></g><g fill="#ff914d" fill-opacity="1"><g transform="translate(10.246014, 212.281714)"><g><path d="M 5.21875 -52.265625 L 20.015625 -52.265625 L 20.015625 -11.71875 L 44.9375 -11.71875 L 44.9375 0 L 5.21875 0 Z M 5.21875 -52.265625 "/></g></g></g><g fill="#ff914d" fill-opacity="1"><g transform="translate(66.316636, 212.281714)"><g><path d="M 47.1875 -11.421875 L 47.1875 0 L 5.21875 0 L 5.21875 -52.265625 L 46.21875 -52.265625 L 46.21875 -40.84375 L 19.859375 -40.84375 L 19.859375 -32.03125 L 43.078125 -32.03125 L 43.078125 -20.984375 L 19.859375 -20.984375 L 19.859375 -11.421875 Z M 47.1875 -11.421875 "/></g></g></g><g fill="#ff914d" fill-opacity="1"><g transform="translate(127.016186, 212.281714)"><g><path d="M 40.234375 -27.25 L 53.296875 -27.25 L 53.296875 -5.59375 C 50.316406 -3.457031 46.882812 -1.816406 43 -0.671875 C 39.113281 0.472656 35.234375 1.046875 31.359375 1.046875 C 25.878906 1.046875 20.945312 -0.109375 16.5625 -2.421875 C 12.1875 -4.734375 8.753906 -7.957031 6.265625 -12.09375 C 3.773438 -16.226562 2.53125 -20.90625 2.53125 -26.125 C 2.53125 -31.351562 3.773438 -36.03125 6.265625 -40.15625 C 8.753906 -44.289062 12.210938 -47.515625 16.640625 -49.828125 C 21.078125 -52.140625 26.082031 -53.296875 31.65625 -53.296875 C 36.53125 -53.296875 40.90625 -52.472656 44.78125 -50.828125 C 48.664062 -49.191406 51.90625 -46.832031 54.5 -43.75 L 45.09375 -35.234375 C 41.5625 -39.117188 37.332031 -41.0625 32.40625 -41.0625 C 27.925781 -41.0625 24.316406 -39.703125 21.578125 -36.984375 C 18.835938 -34.273438 17.46875 -30.65625 17.46875 -26.125 C 17.46875 -23.238281 18.085938 -20.660156 19.328125 -18.390625 C 20.578125 -16.128906 22.320312 -14.363281 24.5625 -13.09375 C 26.800781 -11.832031 29.363281 -11.203125 32.25 -11.203125 C 35.082031 -11.203125 37.742188 -11.773438 40.234375 -12.921875 Z M 40.234375 -27.25 "/></g></g></g><g fill="#ff914d" fill-opacity="1"><g transform="translate(195.032436, 212.281714)"><g><path d="M 5.21875 -52.265625 L 20.015625 -52.265625 L 20.015625 0 L 5.21875 0 Z M 5.21875 -52.265625 "/></g></g></g><g fill="#ff914d" fill-opacity="1"><g transform="translate(230.870145, 212.281714)"><g><path d="M 31.578125 1.046875 C 26.054688 1.046875 21.09375 -0.117188 16.6875 -2.453125 C 12.28125 -4.796875 8.816406 -8.03125 6.296875 -12.15625 C 3.785156 -16.289062 2.53125 -20.945312 2.53125 -26.125 C 2.53125 -31.300781 3.785156 -35.953125 6.296875 -40.078125 C 8.816406 -44.210938 12.28125 -47.445312 16.6875 -49.78125 C 21.09375 -52.125 26.054688 -53.296875 31.578125 -53.296875 C 37.097656 -53.296875 42.0625 -52.125 46.46875 -49.78125 C 50.875 -47.445312 54.332031 -44.210938 56.84375 -40.078125 C 59.363281 -35.953125 60.625 -31.300781 60.625 -26.125 C 60.625 -20.945312 59.363281 -16.289062 56.84375 -12.15625 C 54.332031 -8.03125 50.875 -4.796875 46.46875 -2.453125 C 42.0625 -0.117188 37.097656 1.046875 31.578125 1.046875 Z M 31.578125 -11.203125 C 34.210938 -11.203125 36.597656 -11.820312 38.734375 -13.0625 C 40.878906 -14.3125 42.570312 -16.066406 43.8125 -18.328125 C 45.0625 -20.585938 45.6875 -23.1875 45.6875 -26.125 C 45.6875 -29.0625 45.0625 -31.660156 43.8125 -33.921875 C 42.570312 -36.191406 40.878906 -37.945312 38.734375 -39.1875 C 36.597656 -40.4375 34.210938 -41.0625 31.578125 -41.0625 C 28.941406 -41.0625 26.550781 -40.4375 24.40625 -39.1875 C 22.269531 -37.945312 20.578125 -36.191406 19.328125 -33.921875 C 18.085938 -31.660156 17.46875 -29.0625 17.46875 -26.125 C 17.46875 -23.1875 18.085938 -20.585938 19.328125 -18.328125 C 20.578125 -16.066406 22.269531 -14.3125 24.40625 -13.0625 C 26.550781 -11.820312 28.941406 -11.203125 31.578125 -11.203125 Z M 31.578125 -11.203125 "/></g></g></g><g fill="#ff914d" fill-opacity="1"><g transform="translate(304.56057, 212.281714)"><g><path d="M 54.953125 -52.265625 L 54.953125 0 L 42.78125 0 L 19.703125 -27.84375 L 19.703125 0 L 5.21875 0 L 5.21875 -52.265625 L 17.390625 -52.265625 L 40.46875 -24.40625 L 40.46875 -52.265625 Z M 54.953125 -52.265625 "/></g></g></g><g fill="#ffffff" fill-opacity="1"><g transform="translate(118.850704, 246.421455)"><g><path d="M 12.5 -11.875 L 5.265625 -11.875 L 5.265625 -8.4375 L 11.921875 -8.4375 L 11.921875 -5.46875 L 5.265625 -5.46875 L 5.265625 0 L 1.484375 0 L 1.484375 -14.859375 L 12.5 -14.859375 Z M 12.5 -11.875 "/></g></g></g><g fill="#ffffff" fill-opacity="1"><g transform="translate(138.901786, 246.421455)"><g><path d="M 5.265625 0 L 1.484375 0 L 1.484375 -14.859375 L 5.265625 -14.859375 Z M 5.265625 0 "/></g></g></g><g fill="#ffffff" fill-opacity="1"><g transform="translate(152.885044, 246.421455)"><g><path d="M 12.84375 -11.8125 L 8.359375 -11.8125 L 8.359375 0 L 4.578125 0 L 4.578125 -11.8125 L 0.15625 -11.8125 L 0.15625 -14.875 L 12.84375 -14.875 Z M 12.84375 -11.8125 "/></g></g></g><g fill="#ffffff" fill-opacity="1"><g transform="translate(173.084645, 246.421455)"><g><path d="M 15.1875 0 L 11.859375 0 L 5.03125 -9.140625 L 5.03125 0 L 1.484375 0 L 1.484375 -14.859375 L 4.8125 -14.859375 L 11.671875 -5.6875 L 11.671875 -14.859375 L 15.1875 -14.859375 Z M 15.1875 0 "/></g></g></g><g fill="#ffffff" fill-opacity="1"><g transform="translate(196.99707, 246.421455)"><g><path d="M 13.109375 -11.875 L 5.265625 -11.875 L 5.265625 -8.9375 L 12.34375 -8.9375 L 12.34375 -5.96875 L 5.265625 -5.96875 L 5.265625 -2.96875 L 13.34375 -2.96875 L 13.34375 0 L 1.484375 0 L 1.484375 -14.859375 L 13.109375 -14.859375 Z M 13.109375 -11.875 "/></g></g></g><g fill="#ffffff" fill-opacity="1"><g transform="translate(218.533283, 246.421455)"><g><path d="M 7.1875 -15.015625 C 9.414062 -15.015625 11.367188 -14.46875 13.046875 -13.375 L 11.625 -10.421875 C 10.84375 -10.867188 10.003906 -11.238281 9.109375 -11.53125 C 8.222656 -11.820312 7.476562 -11.96875 6.875 -11.96875 C 5.78125 -11.96875 5.234375 -11.609375 5.234375 -10.890625 C 5.234375 -10.421875 5.503906 -10.046875 6.046875 -9.765625 C 6.585938 -9.484375 7.242188 -9.238281 8.015625 -9.03125 C 8.785156 -8.820312 9.554688 -8.570312 10.328125 -8.28125 C 11.097656 -7.988281 11.75 -7.519531 12.28125 -6.875 C 12.820312 -6.226562 13.09375 -5.40625 13.09375 -4.40625 C 13.09375 -2.976562 12.53125 -1.863281 11.40625 -1.0625 C 10.289062 -0.269531 8.875 0.125 7.15625 0.125 C 5.925781 0.125 4.707031 -0.0820312 3.5 -0.5 C 2.300781 -0.925781 1.253906 -1.507812 0.359375 -2.25 L 1.828125 -5.15625 C 2.578125 -4.507812 3.457031 -3.972656 4.46875 -3.546875 C 5.488281 -3.128906 6.394531 -2.921875 7.1875 -2.921875 C 7.800781 -2.921875 8.273438 -3.03125 8.609375 -3.25 C 8.953125 -3.476562 9.125 -3.800781 9.125 -4.21875 C 9.125 -4.632812 8.925781 -4.976562 8.53125 -5.25 C 8.144531 -5.53125 7.660156 -5.734375 7.078125 -5.859375 C 6.503906 -5.992188 5.878906 -6.175781 5.203125 -6.40625 C 4.523438 -6.632812 3.894531 -6.878906 3.3125 -7.140625 C 2.726562 -7.410156 2.238281 -7.835938 1.84375 -8.421875 C 1.457031 -9.015625 1.265625 -9.722656 1.265625 -10.546875 C 1.265625 -11.898438 1.804688 -12.984375 2.890625 -13.796875 C 3.972656 -14.609375 5.40625 -15.015625 7.1875 -15.015625 Z M 7.1875 -15.015625 "/></g></g></g><g fill="#ffffff" fill-opacity="1"><g transform="translate(239.433008, 246.421455)"><g><path d="M 7.1875 -15.015625 C 9.414062 -15.015625 11.367188 -14.46875 13.046875 -13.375 L 11.625 -10.421875 C 10.84375 -10.867188 10.003906 -11.238281 9.109375 -11.53125 C 8.222656 -11.820312 7.476562 -11.96875 6.875 -11.96875 C 5.78125 -11.96875 5.234375 -11.609375 5.234375 -10.890625 C 5.234375 -10.421875 5.503906 -10.046875 6.046875 -9.765625 C 6.585938 -9.484375 7.242188 -9.238281 8.015625 -9.03125 C 8.785156 -8.820312 9.554688 -8.570312 10.328125 -8.28125 C 11.097656 -7.988281 11.75 -7.519531 12.28125 -6.875 C 12.820312 -6.226562 13.09375 -5.40625 13.09375 -4.40625 C 13.09375 -2.976562 12.53125 -1.863281 11.40625 -1.0625 C 10.289062 -0.269531 8.875 0.125 7.15625 0.125 C 5.925781 0.125 4.707031 -0.0820312 3.5 -0.5 C 2.300781 -0.925781 1.253906 -1.507812 0.359375 -2.25 L 1.828125 -5.15625 C 2.578125 -4.507812 3.457031 -3.972656 4.46875 -3.546875 C 5.488281 -3.128906 6.394531 -2.921875 7.1875 -2.921875 C 7.800781 -2.921875 8.273438 -3.03125 8.609375 -3.25 C 8.953125 -3.476562 9.125 -3.800781 9.125 -4.21875 C 9.125 -4.632812 8.925781 -4.976562 8.53125 -5.25 C 8.144531 -5.53125 7.660156 -5.734375 7.078125 -5.859375 C 6.503906 -5.992188 5.878906 -6.175781 5.203125 -6.40625 C 4.523438 -6.632812 3.894531 -6.878906 3.3125 -7.140625 C 2.726562 -7.410156 2.238281 -7.835938 1.84375 -8.421875 C 1.457031 -9.015625 1.265625 -9.722656 1.265625 -10.546875 C 1.265625 -11.898438 1.804688 -12.984375 2.890625 -13.796875 C 3.972656 -14.609375 5.40625 -15.015625 7.1875 -15.015625 Z M 7.1875 -15.015625 "/></g></g></g><g fill="#ffffff" fill-opacity="1"><g transform="translate(260.338697, 246.421455)"><g/></g></g><g fill="#d9d9d9" fill-opacity="1"><g transform="translate(109.682598, 301.575391)"><g><path d="M 8.046875 -5.46875 L 2.9375 -5.46875 L 2.9375 -1.28125 L 8.875 -1.28125 L 8.875 0 L 1.375 0 L 1.375 -11.8125 L 8.796875 -11.8125 L 8.796875 -10.53125 L 2.9375 -10.53125 L 2.9375 -6.734375 L 8.046875 -6.734375 Z M 8.046875 -5.46875 "/></g></g></g><g fill="#d9d9d9" fill-opacity="1"><g transform="translate(127.571653, 301.575391)"><g><path d="M 4.859375 -5.265625 C 3.515625 -5.648438 2.535156 -6.125 1.921875 -6.6875 C 1.316406 -7.25 1.015625 -7.941406 1.015625 -8.765625 C 1.015625 -9.691406 1.382812 -10.457031 2.125 -11.0625 C 2.875 -11.675781 3.847656 -11.984375 5.046875 -11.984375 C 5.859375 -11.984375 6.582031 -11.828125 7.21875 -11.515625 C 7.851562 -11.203125 8.34375 -10.769531 8.6875 -10.21875 C 9.039062 -9.664062 9.21875 -9.0625 9.21875 -8.40625 L 7.640625 -8.40625 C 7.640625 -9.113281 7.410156 -9.671875 6.953125 -10.078125 C 6.503906 -10.492188 5.867188 -10.703125 5.046875 -10.703125 C 4.273438 -10.703125 3.671875 -10.53125 3.234375 -10.1875 C 2.804688 -9.851562 2.59375 -9.382812 2.59375 -8.78125 C 2.59375 -8.300781 2.796875 -7.894531 3.203125 -7.5625 C 3.617188 -7.226562 4.316406 -6.921875 5.296875 -6.640625 C 6.273438 -6.367188 7.039062 -6.066406 7.59375 -5.734375 C 8.15625 -5.398438 8.566406 -5.007812 8.828125 -4.5625 C 9.097656 -4.125 9.234375 -3.601562 9.234375 -3 C 9.234375 -2.039062 8.859375 -1.273438 8.109375 -0.703125 C 7.367188 -0.128906 6.375 0.15625 5.125 0.15625 C 4.3125 0.15625 3.550781 0.00390625 2.84375 -0.296875 C 2.144531 -0.609375 1.601562 -1.035156 1.21875 -1.578125 C 0.84375 -2.117188 0.65625 -2.734375 0.65625 -3.421875 L 2.21875 -3.421875 C 2.21875 -2.710938 2.476562 -2.148438 3 -1.734375 C 3.53125 -1.316406 4.238281 -1.109375 5.125 -1.109375 C 5.945312 -1.109375 6.578125 -1.273438 7.015625 -1.609375 C 7.453125 -1.953125 7.671875 -2.410156 7.671875 -2.984375 C 7.671875 -3.566406 7.46875 -4.015625 7.0625 -4.328125 C 6.65625 -4.648438 5.921875 -4.960938 4.859375 -5.265625 Z M 4.859375 -5.265625 "/></g></g></g><g fill="#d9d9d9" fill-opacity="1"><g transform="translate(145.874516, 301.575391)"><g><path d="M 9.53125 -10.53125 L 5.734375 -10.53125 L 5.734375 0 L 4.1875 0 L 4.1875 -10.53125 L 0.390625 -10.53125 L 0.390625 -11.8125 L 9.53125 -11.8125 Z M 9.53125 -10.53125 "/></g></g></g><g fill="#d9d9d9" fill-opacity="1"><g transform="translate(164.234176, 301.575391)"><g><path d="M 1.375 0 L 1.375 -11.8125 L 4.703125 -11.8125 C 5.734375 -11.8125 6.644531 -11.582031 7.4375 -11.125 C 8.226562 -10.675781 8.835938 -10.03125 9.265625 -9.1875 C 9.691406 -8.351562 9.910156 -7.394531 9.921875 -6.3125 L 9.921875 -5.546875 C 9.921875 -4.429688 9.703125 -3.453125 9.265625 -2.609375 C 8.835938 -1.773438 8.222656 -1.132812 7.421875 -0.6875 C 6.628906 -0.238281 5.703125 -0.0078125 4.640625 0 Z M 2.9375 -10.53125 L 2.9375 -1.28125 L 4.5625 -1.28125 C 5.769531 -1.28125 6.707031 -1.648438 7.375 -2.390625 C 8.039062 -3.140625 8.375 -4.203125 8.375 -5.578125 L 8.375 -6.28125 C 8.375 -7.613281 8.054688 -8.648438 7.421875 -9.390625 C 6.796875 -10.140625 5.90625 -10.519531 4.75 -10.53125 Z M 2.9375 -10.53125 "/></g></g></g><g fill="#d9d9d9" fill-opacity="1"><g transform="translate(183.575611, 301.575391)"><g/></g></g><g fill="#d9d9d9" fill-opacity="1"><g transform="translate(196.133859, 301.575391)"><g><path d="M 8.71875 0 L 0.984375 0 L 0.984375 -1.078125 L 5.078125 -5.625 C 5.679688 -6.3125 6.097656 -6.867188 6.328125 -7.296875 C 6.554688 -7.734375 6.671875 -8.179688 6.671875 -8.640625 C 6.671875 -9.253906 6.484375 -9.757812 6.109375 -10.15625 C 5.734375 -10.550781 5.238281 -10.75 4.625 -10.75 C 3.875 -10.75 3.289062 -10.535156 2.875 -10.109375 C 2.457031 -9.679688 2.25 -9.09375 2.25 -8.34375 L 0.75 -8.34375 C 0.75 -9.425781 1.097656 -10.300781 1.796875 -10.96875 C 2.503906 -11.644531 3.445312 -11.984375 4.625 -11.984375 C 5.71875 -11.984375 6.582031 -11.691406 7.21875 -11.109375 C 7.863281 -10.535156 8.1875 -9.769531 8.1875 -8.8125 C 8.1875 -7.65625 7.441406 -6.269531 5.953125 -4.65625 L 2.796875 -1.21875 L 8.71875 -1.21875 Z M 8.71875 0 "/></g></g></g><g fill="#d9d9d9" fill-opacity="1"><g transform="translate(213.909325, 301.575391)"><g><path d="M 8.390625 -5.046875 C 8.390625 -3.285156 8.085938 -1.976562 7.484375 -1.125 C 6.890625 -0.269531 5.953125 0.15625 4.671875 0.15625 C 3.410156 0.15625 2.476562 -0.257812 1.875 -1.09375 C 1.269531 -1.925781 0.957031 -3.175781 0.9375 -4.84375 L 0.9375 -6.84375 C 0.9375 -8.582031 1.234375 -9.875 1.828125 -10.71875 C 2.429688 -11.5625 3.375 -11.984375 4.65625 -11.984375 C 5.925781 -11.984375 6.863281 -11.570312 7.46875 -10.75 C 8.070312 -9.9375 8.378906 -8.679688 8.390625 -6.984375 Z M 6.890625 -7.09375 C 6.890625 -8.363281 6.710938 -9.289062 6.359375 -9.875 C 6.003906 -10.457031 5.4375 -10.75 4.65625 -10.75 C 3.882812 -10.75 3.320312 -10.457031 2.96875 -9.875 C 2.625 -9.300781 2.445312 -8.410156 2.4375 -7.203125 L 2.4375 -4.8125 C 2.4375 -3.53125 2.617188 -2.582031 2.984375 -1.96875 C 3.359375 -1.363281 3.921875 -1.0625 4.671875 -1.0625 C 5.410156 -1.0625 5.960938 -1.347656 6.328125 -1.921875 C 6.691406 -2.492188 6.878906 -3.398438 6.890625 -4.640625 Z M 6.890625 -7.09375 "/></g></g></g><g fill="#d9d9d9" fill-opacity="1"><g transform="translate(231.684791, 301.575391)"><g><path d="M 8.71875 0 L 0.984375 0 L 0.984375 -1.078125 L 5.078125 -5.625 C 5.679688 -6.3125 6.097656 -6.867188 6.328125 -7.296875 C 6.554688 -7.734375 6.671875 -8.179688 6.671875 -8.640625 C 6.671875 -9.253906 6.484375 -9.757812 6.109375 -10.15625 C 5.734375 -10.550781 5.238281 -10.75 4.625 -10.75 C 3.875 -10.75 3.289062 -10.535156 2.875 -10.109375 C 2.457031 -9.679688 2.25 -9.09375 2.25 -8.34375 L 0.75 -8.34375 C 0.75 -9.425781 1.097656 -10.300781 1.796875 -10.96875 C 2.503906 -11.644531 3.445312 -11.984375 4.625 -11.984375 C 5.71875 -11.984375 6.582031 -11.691406 7.21875 -11.109375 C 7.863281 -10.535156 8.1875 -9.769531 8.1875 -8.8125 C 8.1875 -7.65625 7.441406 -6.269531 5.953125 -4.65625 L 2.796875 -1.21875 L 8.71875 -1.21875 Z M 8.71875 0 "/></g></g></g><g fill="#d9d9d9" fill-opacity="1"><g transform="translate(249.460257, 301.575391)"><g><path d="M 7.328125 -3.96875 L 8.96875 -3.96875 L 8.96875 -2.75 L 7.328125 -2.75 L 7.328125 0 L 5.8125 0 L 5.8125 -2.75 L 0.4375 -2.75 L 0.4375 -3.625 L 5.71875 -11.8125 L 7.328125 -11.8125 Z M 2.140625 -3.96875 L 5.8125 -3.96875 L 5.8125 -9.765625 L 5.640625 -9.4375 Z M 2.140625 -3.96875 "/></g></g></g></svg>